<svg width="28" height="28" viewBox="0 0 28 28" fill="none" xmlns="http://www.w3.org/2000/svg">
<path d="M26.7934 28L16.0911 17.299C15.2365 18.027 14.2538 18.5903 13.1429 18.9891C12.032 19.3878 10.9154 19.5872 9.79308 19.5872C7.05626 19.5872 4.73987 18.6399 2.84392 16.7453C0.947975 14.8507 0 12.5352 0 9.79872C0 7.06223 0.946835 4.74556 2.84051 2.84871C4.73418 0.95185 7.04942 0.0022826 9.78624 4.09803e-06C12.5231 -0.00227441 14.8406 0.945584 16.7388 2.84358C18.637 4.74158 19.5862 7.05825 19.5862 9.79359C19.5862 10.9807 19.3759 12.1296 18.9555 13.2404C18.5351 14.3512 17.9825 15.3013 17.2977 16.0908L28 26.7901L26.7934 28ZM9.79479 17.8766C12.0622 17.8766 13.9764 17.0962 15.5373 15.5354C17.0983 13.9747 17.8788 12.0601 17.8788 9.79188C17.8788 7.52363 17.0983 5.60969 15.5373 4.05005C13.9764 2.49041 12.0622 1.71002 9.79479 1.70888C7.5274 1.70774 5.61265 2.48813 4.05054 4.05005C2.48843 5.61197 1.70795 7.52591 1.70909 9.79188C1.71023 12.0579 2.49071 13.9718 4.05054 15.5337C5.61037 17.0956 7.52455 17.876 9.79308 17.8749" fill="#4F4F4F"/>
</svg>
