<svg width="60" height="60" viewBox="0 0 60 60" fill="none" xmlns="http://www.w3.org/2000/svg">
<path fill-rule="evenodd" clip-rule="evenodd" d="M10.5 13L29.4 27.175C29.5731 27.3048 29.7836 27.375 30 27.375C30.2164 27.375 30.4269 27.3048 30.6 27.175L49.5 13H10.5ZM52 14.875L32.4 29.575C31.7076 30.0943 30.8655 30.375 30 30.375C29.1345 30.375 28.2924 30.0943 27.6 29.575L8 14.875V47H52V14.875ZM7.5 10H52.5C53.163 10 53.7989 10.2634 54.2678 10.7322C54.7366 11.2011 55 11.837 55 12.5V47.5C55 48.163 54.7366 48.7989 54.2678 49.2678C53.7989 49.7366 53.163 50 52.5 50H7.5C6.83696 50 6.20107 49.7366 5.73223 49.2678C5.26339 48.7989 5 48.163 5 47.5V12.5C5 11.837 5.26339 11.2011 5.73223 10.7322C6.20107 10.2634 6.83696 10 7.5 10Z" fill="white"/>
</svg>
