<svg width="27" height="28" viewBox="0 0 27 28" fill="none" xmlns="http://www.w3.org/2000/svg">
<path d="M11.3942 13.0258C10.4738 13.0258 9.68538 12.6977 9.02908 12.0414C8.37277 11.3851 8.04499 10.597 8.04573 9.67732C8.04648 8.75759 8.37426 7.96883 9.02908 7.31104C9.68389 6.65324 10.4723 6.32621 11.3942 6.32993C12.3162 6.33365 13.1046 6.66106 13.7594 7.31215C14.4142 7.96325 14.742 8.75201 14.7427 9.67843C14.7435 10.6049 14.4157 11.3929 13.7594 12.0425C13.1031 12.6921 12.3147 13.0191 11.3942 13.0258ZM3.58105 21.0968V19.2596C3.58105 18.799 3.715 18.3682 3.98288 17.9671C4.2515 17.5653 4.61239 17.2535 5.06556 17.0318C6.11922 16.5265 7.17363 16.1477 8.22878 15.8955C9.28319 15.6425 10.3383 15.516 11.3942 15.516C12.4501 15.516 13.5057 15.6425 14.5608 15.8955C15.616 16.1485 16.6696 16.5272 17.7218 17.0318C18.1757 17.2535 18.5366 17.5653 18.8045 17.9671C19.0731 18.3682 19.2074 18.799 19.2074 19.2596V21.0968H3.58105ZM4.69722 19.9807H18.0913V19.2596C18.0913 19.0126 18.0113 18.78 17.8513 18.562C17.692 18.3447 17.4714 18.1609 17.1894 18.0106C16.2712 17.5657 15.3239 17.2249 14.3476 16.9882C13.3713 16.7516 12.3869 16.6329 11.3942 16.6322C10.4016 16.6314 9.41713 16.7497 8.44086 16.9871C7.46458 17.2245 6.51732 17.5653 5.59909 18.0095C5.31633 18.1598 5.0957 18.3436 4.9372 18.5609C4.77722 18.7789 4.69722 19.0118 4.69722 19.2596V19.9807ZM11.3942 11.9108C12.0081 11.9108 12.5338 11.692 12.9714 11.2545C13.4089 10.8169 13.6273 10.2908 13.6266 9.6762C13.6258 9.06156 13.4074 8.53622 12.9714 8.10017C12.5353 7.66412 12.0096 7.44535 11.3942 7.44386C10.7789 7.44237 10.2535 7.66114 9.81821 8.10017C9.3829 8.5392 9.16413 9.06454 9.1619 9.6762C9.15967 10.2879 9.37844 10.8136 9.81821 11.2533C10.258 11.6931 10.7833 11.9115 11.3942 11.9085" fill="#222222"/>
</svg>
