<svg width="23" height="24" viewBox="0 0 23 24" fill="none" xmlns="http://www.w3.org/2000/svg">
<path d="M10.3331 14.6066C10.5037 14.6066 10.6432 14.5525 10.7515 14.4442C10.8604 14.3359 10.9148 14.1964 10.9148 14.0258C10.9148 13.8545 10.8604 13.7148 10.7515 13.6065C10.6432 13.4982 10.5037 13.444 10.3331 13.444C10.1624 13.444 10.023 13.4982 9.91467 13.6065C9.80638 13.7148 9.75191 13.8545 9.75128 14.0258C9.75065 14.1971 9.80512 14.3365 9.91467 14.4442C10.0242 14.5519 10.1637 14.606 10.3331 14.6066ZM10.3331 11.8101C10.4678 11.8101 10.5802 11.7648 10.6702 11.6741C10.7603 11.5834 10.8053 11.4714 10.8053 11.3379V6.54292C10.8053 6.40817 10.7603 6.29579 10.6702 6.20575C10.5802 6.11571 10.4678 6.07069 10.3331 6.07069C10.1983 6.07069 10.0859 6.11571 9.99589 6.20575C9.90586 6.29579 9.86084 6.40817 9.86084 6.54292V11.3379C9.86084 11.472 9.90586 11.5841 9.99589 11.6741C10.0859 11.7642 10.1983 11.8095 10.3331 11.8101ZM4.73908 17.0405L3.12974 18.6498C2.89111 18.8885 2.61533 18.9432 2.3024 18.8142C1.98947 18.6851 1.83301 18.4506 1.83301 18.1105V5.34441C1.83301 4.90933 1.97877 4.54635 2.27029 4.25546C2.56181 3.96457 2.92479 3.81881 3.35924 3.81818H17.3078C17.7423 3.81818 18.1053 3.96394 18.3968 4.25546C18.6883 4.54698 18.8337 4.90996 18.8331 5.34441V15.5152C18.8331 15.9496 18.6877 16.3126 18.3968 16.6041C18.1059 16.8957 17.7429 17.0411 17.3078 17.0405H4.73908ZM4.3358 16.096H17.3078C17.4526 16.096 17.5858 16.0356 17.7073 15.9147C17.8289 15.7938 17.8893 15.6606 17.8887 15.5152V5.34346C17.8887 5.19865 17.8282 5.06548 17.7073 4.94396C17.5864 4.82244 17.4533 4.762 17.3078 4.76263H3.3583C3.21348 4.76263 3.08031 4.82307 2.95879 4.94396C2.83727 5.06485 2.77683 5.19802 2.77746 5.34346V17.6497L4.3358 16.096Z" fill="#222222"/>
</svg>
