<svg width="35" height="34" viewBox="0 0 35 34" fill="none" xmlns="http://www.w3.org/2000/svg">
<path d="M30.9897 17H12.972M6.61216 17H4.0105M6.61216 17C6.61216 16.1809 6.94711 15.3954 7.54332 14.8162C8.13953 14.2371 8.94816 13.9117 9.79133 13.9117C10.6345 13.9117 11.4431 14.2371 12.0393 14.8162C12.6356 15.3954 12.9705 16.1809 12.9705 17C12.9705 17.8191 12.6356 18.6046 12.0393 19.1838C11.4431 19.763 10.6345 20.0883 9.79133 20.0883C8.94816 20.0883 8.13953 19.763 7.54332 19.1838C6.94711 18.6046 6.61216 17.8191 6.61216 17ZM30.9897 26.3599H22.6072M22.6072 26.3599C22.6072 27.1792 22.2714 27.9656 21.6751 28.5449C21.0787 29.1242 20.2699 29.4497 19.4265 29.4497C18.5834 29.4497 17.7747 29.1229 17.1785 28.5437C16.5823 27.9645 16.2474 27.179 16.2474 26.3599M22.6072 26.3599C22.6072 25.5407 22.2714 24.7557 21.6751 24.1764C21.0787 23.597 20.2699 23.2716 19.4265 23.2716C18.5834 23.2716 17.7747 23.597 17.1785 24.1761C16.5823 24.7553 16.2474 25.5408 16.2474 26.3599M16.2474 26.3599H4.0105M30.9897 7.64009H26.4615M20.1017 7.64009H4.0105M20.1017 7.64009C20.1017 6.82101 20.4367 6.03548 21.0329 5.45631C21.6291 4.87713 22.4377 4.55176 23.2809 4.55176C23.6984 4.55176 24.1118 4.63164 24.4975 4.78684C24.8832 4.94205 25.2337 5.16953 25.5289 5.45631C25.8241 5.74309 26.0583 6.08354 26.2181 6.45824C26.3778 6.83293 26.4601 7.23453 26.4601 7.64009C26.4601 8.04566 26.3778 8.44725 26.2181 8.82195C26.0583 9.19664 25.8241 9.53709 25.5289 9.82387C25.2337 10.1107 24.8832 10.3381 24.4975 10.4933C24.1118 10.6485 23.6984 10.7284 23.2809 10.7284C22.4377 10.7284 21.6291 10.403 21.0329 9.82387C20.4367 9.2447 20.1017 8.45917 20.1017 7.64009Z" stroke="url(#paint0_linear_37_4)" stroke-width="1.5" stroke-miterlimit="10" stroke-linecap="round"/>
<defs>
<linearGradient id="paint0_linear_37_4" x1="17.5001" y1="4.55176" x2="17.5001" y2="29.4497" gradientUnits="userSpaceOnUse">
<stop stop-color="#3195FF"/>
<stop offset="0.5" stop-color="#2C68A9"/>
<stop offset="1" stop-color="#144A85"/>
</linearGradient>
</defs>
</svg>
