<svg width="24" height="25" viewBox="0 0 24 25" fill="none" xmlns="http://www.w3.org/2000/svg">
<path d="M3.616 20.3182C3.15533 20.3182 2.771 20.1642 2.463 19.8562C2.155 19.5482 2.00067 19.1636 2 18.7022V5.93424C2 5.47357 2.15433 5.08924 2.463 4.78124C2.77167 4.47324 3.156 4.3189 3.616 4.31824H10.019V5.31824H3.616C3.462 5.31824 3.32067 5.38224 3.192 5.51024C3.06333 5.63824 2.99933 5.77957 3 5.93424V18.7032C3 18.8566 3.064 18.9976 3.192 19.1262C3.32 19.2549 3.461 19.3189 3.615 19.3182H10.019V20.3182H3.616ZM14.462 15.8572L13.76 15.1372L16.079 12.8182H7.192V11.8182H16.079L13.759 9.49824L14.461 8.78024L18 12.3182L14.462 15.8572Z" fill="#222222"/>
</svg>
