<svg width="63" height="63" viewBox="0 0 63 63" fill="none" xmlns="http://www.w3.org/2000/svg">
<path d="M31.5 44.625C30.1076 44.625 28.7723 44.0719 27.7877 43.0873C26.8031 42.1027 26.25 40.7674 26.25 39.375C26.25 36.4613 28.5863 34.125 31.5 34.125C32.8924 34.125 34.2277 34.6781 35.2123 35.6627C36.1969 36.6473 36.75 37.9826 36.75 39.375C36.75 40.7674 36.1969 42.1027 35.2123 43.0873C34.2277 44.0719 32.8924 44.625 31.5 44.625ZM47.25 52.5V26.25H15.75V52.5H47.25ZM47.25 21C48.6424 21 49.9777 21.5531 50.9623 22.5377C51.9469 23.5223 52.5 24.8576 52.5 26.25V52.5C52.5 53.8924 51.9469 55.2277 50.9623 56.2123C49.9777 57.1969 48.6424 57.75 47.25 57.75H15.75C14.3576 57.75 13.0223 57.1969 12.0377 56.2123C11.0531 55.2277 10.5 53.8924 10.5 52.5V26.25C10.5 23.3363 12.8363 21 15.75 21H18.375V15.75C18.375 12.269 19.7578 8.93064 22.2192 6.46922C24.6806 4.00781 28.019 2.625 31.5 2.625C33.2236 2.625 34.9303 2.96449 36.5227 3.62408C38.1151 4.28367 39.562 5.25045 40.7808 6.46922C41.9995 7.68799 42.9663 9.13488 43.6259 10.7273C44.2855 12.3197 44.625 14.0264 44.625 15.75V21H47.25ZM31.5 7.875C29.4114 7.875 27.4084 8.70469 25.9315 10.1815C24.4547 11.6584 23.625 13.6614 23.625 15.75V21H39.375V15.75C39.375 13.6614 38.5453 11.6584 37.0685 10.1815C35.5916 8.70469 33.5886 7.875 31.5 7.875Z" fill="white"/>
</svg>
