<svg width="23" height="22" viewBox="0 0 23 22" fill="none" xmlns="http://www.w3.org/2000/svg">
<g clip-path="url(#clip0_1_1061)">
<path d="M18.3931 20.4345H4.82217C4.68799 20.4353 4.55497 20.4096 4.43071 20.359C4.30645 20.3084 4.19337 20.2338 4.09793 20.1395C4.0025 20.0452 3.92658 19.933 3.8745 19.8093C3.82243 19.6856 3.79522 19.5529 3.79443 19.4188V4.02079C3.798 3.87211 3.83306 3.72588 3.89729 3.59175C3.96152 3.45762 4.05347 3.33863 4.16706 3.24265C4.28065 3.14666 4.41331 3.07586 4.55628 3.0349C4.69925 2.99395 4.84928 2.98378 4.99646 3.00507H6.19849V4.2071H4.99646V19.2325H18.2188V4.2071H17.0167V3.00507H18.369C18.5052 3.00106 18.6408 3.02433 18.7679 3.0735C18.8949 3.12267 19.0109 3.19676 19.1088 3.2914C19.2068 3.38603 19.2849 3.49932 19.3385 3.62458C19.3921 3.74984 19.4201 3.88455 19.4208 4.02079V19.4188C19.42 19.5529 19.3928 19.6856 19.3407 19.8093C19.2887 19.933 19.2127 20.0452 19.1173 20.1395C19.0219 20.2338 18.9088 20.3084 18.7845 20.359C18.6603 20.4096 18.5272 20.4353 18.3931 20.4345Z" fill="white"/>
<path d="M10.8023 15.4821L7.58085 12.2607C7.48314 12.145 7.4327 11.9967 7.43959 11.8455C7.44648 11.6942 7.51021 11.5512 7.61802 11.4449C7.72584 11.3386 7.86981 11.2769 8.02114 11.2721C8.17247 11.2674 8.32002 11.3199 8.43429 11.4193L10.8023 13.7873L15.995 8.5945C16.11 8.49604 16.2579 8.44459 16.4092 8.45043C16.5604 8.45627 16.7039 8.51898 16.811 8.62602C16.918 8.73305 16.9807 8.87654 16.9865 9.0278C16.9924 9.17906 16.9409 9.32695 16.8425 9.44193L10.8023 15.4821Z" fill="white"/>
<path d="M16.416 6.61115H6.7998V4.40543C6.80139 4.03452 6.94943 3.67925 7.21171 3.41697C7.47399 3.1547 7.82926 3.00665 8.20017 3.00507H9.27598C9.40839 2.48795 9.70913 2.0296 10.1308 1.70229C10.5525 1.37497 11.0711 1.19731 11.6049 1.19731C12.1387 1.19731 12.6573 1.37497 13.079 1.70229C13.5007 2.0296 13.8014 2.48795 13.9338 3.00507H15.0097C15.3816 3.00506 15.7384 3.15241 16.002 3.41486C16.2656 3.67731 16.4144 4.03348 16.416 4.40543V6.61115ZM8.00183 5.40912H15.214V4.40543C15.214 4.35283 15.1931 4.30238 15.1559 4.26519C15.1187 4.22799 15.0683 4.2071 15.0157 4.2071H12.8099V3.60608C12.8099 3.28728 12.6833 2.98154 12.4579 2.75612C12.2325 2.5307 11.9267 2.40405 11.6079 2.40405C11.2891 2.40405 10.9834 2.5307 10.758 2.75612C10.5325 2.98154 10.4059 3.28728 10.4059 3.60608V4.2071H8.20017C8.17412 4.2071 8.14833 4.21223 8.12427 4.22219C8.1002 4.23216 8.07834 4.24677 8.05992 4.26519C8.04151 4.2836 8.0269 4.30547 8.01693 4.32953C8.00696 4.35359 8.00183 4.37938 8.00183 4.40543V5.40912Z" fill="white"/>
</g>
<defs>
<clipPath id="clip0_1_1061">
<rect width="21.6365" height="21.6365" fill="white" transform="translate(0.789551)"/>
</clipPath>
</defs>
</svg>
