<svg width="83" height="83" viewBox="0 0 83 83" fill="none" xmlns="http://www.w3.org/2000/svg">
<path d="M41.5 39.0323C38.378 39.0323 35.7041 37.8546 33.4781 35.499C31.2521 33.1435 30.1403 30.3152 30.1429 27.0142C30.1454 23.7132 31.2571 20.8823 33.4781 18.5214C35.699 16.1605 38.373 14.9868 41.5 15.0001C44.627 15.0135 47.301 16.1886 49.5219 18.5254C51.7429 20.8623 52.8546 23.6932 52.8571 27.0182C52.8597 30.3432 51.7479 33.1715 49.5219 35.503C47.2959 37.8345 44.622 39.0083 41.5 39.0323ZM15 68V61.4061C15 59.7529 15.4543 58.2066 16.3629 56.7671C17.274 55.3249 18.498 54.2059 20.035 53.41C23.6087 51.5966 27.185 50.2372 30.7637 49.3319C34.34 48.4238 37.9187 47.9698 41.5 47.9698C45.0813 47.9698 48.6613 48.4238 52.2401 49.3319C55.8188 50.2399 59.3926 51.5993 62.9612 53.41C64.5007 54.2059 65.7248 55.3249 66.6334 56.7671C67.5445 58.2066 68 59.7529 68 61.4061V68H15ZM18.7857 63.994H64.2143V61.4061C64.2143 60.5194 63.943 59.6848 63.4004 58.9023C62.8603 58.1224 62.1119 57.4628 61.1554 56.9233C58.041 55.3262 54.8282 54.1031 51.517 53.2538C48.2058 52.4045 44.8668 51.9785 41.5 51.9758C38.1332 51.9732 34.7942 52.3978 31.483 53.2498C28.1718 54.1017 24.959 55.3249 21.8446 56.9193C20.8855 57.4588 20.1372 58.1184 19.5996 58.8983C19.057 59.6808 18.7857 60.5167 18.7857 61.4061V63.994ZM41.5 35.0303C43.5821 35.0303 45.3652 34.2451 46.8492 32.6748C48.3332 31.1044 49.074 29.2162 49.0714 27.0102C49.0689 24.8042 48.3282 22.9187 46.8492 21.3537C45.3703 19.7887 43.5872 19.0035 41.5 18.9981C39.4128 18.9928 37.631 19.778 36.1546 21.3537C34.6781 22.9294 33.9361 24.8149 33.9286 27.0102C33.921 29.2055 34.663 31.0924 36.1546 32.6707C37.6461 34.2491 39.428 35.033 41.5 35.0223" fill="white"/>
</svg>
