<svg width="150" height="150" viewBox="0 0 150 150" fill="none" xmlns="http://www.w3.org/2000/svg">
<path d="M93.75 25C87.1196 25 80.7607 27.6339 76.0723 32.3223C71.3839 37.0107 68.75 43.3696 68.75 50C68.75 56.6304 71.3839 62.9893 76.0723 67.6777C80.7607 72.3661 87.1196 75 93.75 75C100.38 75 106.739 72.3661 111.428 67.6777C116.116 62.9893 118.75 56.6304 118.75 50C118.75 43.3696 116.116 37.0107 111.428 32.3223C106.739 27.6339 100.38 25 93.75 25ZM93.75 36.875C95.4736 36.875 97.1803 37.2145 98.7727 37.8741C100.365 38.5337 101.812 39.5005 103.031 40.7192C104.25 41.938 105.216 43.3849 105.876 44.9773C106.536 46.5697 106.875 48.2764 106.875 50C106.875 51.7236 106.536 53.4303 105.876 55.0227C105.216 56.6151 104.25 58.062 103.031 59.2808C101.812 60.4995 100.365 61.4663 98.7727 62.1259C97.1803 62.7855 95.4736 63.125 93.75 63.125C92.0264 63.125 90.3197 62.7855 88.7273 62.1259C87.1349 61.4663 85.688 60.4995 84.4692 59.2808C83.2505 58.062 82.2837 56.6151 81.6241 55.0227C80.9645 53.4303 80.625 51.7236 80.625 50C80.625 46.519 82.0078 43.1806 84.4692 40.7192C86.9306 38.2578 90.269 36.875 93.75 36.875ZM25 43.75V62.5H6.25V75H25V93.75H37.5V75H56.25V62.5H37.5V43.75H25ZM93.75 81.25C77.0625 81.25 43.75 89.5625 43.75 106.25V125H143.75V106.25C143.75 89.5625 110.438 81.25 93.75 81.25ZM93.75 93.125C112.312 93.125 131.875 102.25 131.875 106.25V113.125H55.625V106.25C55.625 102.25 75 93.125 93.75 93.125Z" fill="white"/>
</svg>
