<svg width="40" height="40" viewBox="0 0 40 40" fill="none" xmlns="http://www.w3.org/2000/svg">
<path d="M36.3891 4.962H30.4831C30.3648 4.962 30.2514 5.00899 30.1677 5.09263C30.0841 5.17627 30.0371 5.28971 30.0371 5.408C30.0371 5.52629 30.0841 5.63973 30.1677 5.72337C30.2514 5.80701 30.3648 5.854 30.4831 5.854H36.3891C36.4441 5.854 36.4881 5.898 36.4881 5.953V12.323H3.57511V5.953C3.57537 5.92665 3.58602 5.90147 3.60475 5.88294C3.62347 5.8644 3.64876 5.854 3.67511 5.854H9.89911C10.0174 5.854 10.1308 5.80701 10.2145 5.72337C10.2981 5.63973 10.3451 5.52629 10.3451 5.408C10.3451 5.28971 10.2981 5.17627 10.2145 5.09263C10.1308 5.00899 10.0174 4.962 9.89911 4.962H3.67511C3.41226 4.96226 3.16025 5.06673 2.9743 5.25249C2.78835 5.43825 2.68363 5.69016 2.68311 5.953V35.487C2.68311 36.035 3.12811 36.48 3.67511 36.48H36.3891C36.6521 36.4795 36.9042 36.3746 37.09 36.1884C37.2758 36.0023 37.3801 35.75 37.3801 35.487V5.953C37.3796 5.69033 37.275 5.43858 37.0893 5.25284C36.9035 5.06711 36.6518 4.96253 36.3891 4.962ZM36.3891 35.588H3.67511C3.66189 35.588 3.6488 35.5854 3.6366 35.5803C3.62441 35.5752 3.61334 35.5677 3.60404 35.5584C3.59474 35.549 3.58739 35.5378 3.58243 35.5256C3.57746 35.5133 3.57497 35.5002 3.57511 35.487V13.214H36.4881V35.486C36.4884 35.4992 36.486 35.5124 36.4812 35.5247C36.4763 35.5369 36.4691 35.5482 36.4599 35.5577C36.4507 35.5671 36.4397 35.5747 36.4275 35.5799C36.4154 35.5851 36.4023 35.5879 36.3891 35.588Z" fill="url(#paint0_linear_1_1092)"/>
<path d="M14.1712 5.854H26.0752C26.1935 5.854 26.3069 5.80701 26.3905 5.72337C26.4742 5.63973 26.5212 5.52629 26.5212 5.408C26.5212 5.28971 26.4742 5.17627 26.3905 5.09263C26.3069 5.00899 26.1935 4.962 26.0752 4.962H14.1712C14.0529 4.962 13.9394 5.00899 13.8558 5.09263C13.7722 5.17627 13.7252 5.28971 13.7252 5.408C13.7252 5.52629 13.7722 5.63973 13.8558 5.72337C13.9394 5.80701 14.0529 5.854 14.1712 5.854ZM12.1472 8.944C12.3932 8.944 12.5932 8.744 12.5932 8.498V2.5C12.5932 2.44143 12.5816 2.38343 12.5592 2.32932C12.5368 2.27521 12.504 2.22605 12.4625 2.18463C12.4211 2.14322 12.372 2.11036 12.3178 2.08795C12.2637 2.06554 12.2057 2.054 12.1472 2.054C12.0886 2.054 12.0306 2.06554 11.9765 2.08795C11.9224 2.11036 11.8732 2.14322 11.8318 2.18463C11.7904 2.22605 11.7575 2.27521 11.7351 2.32932C11.7127 2.38343 11.7012 2.44143 11.7012 2.5V8.499C11.7012 8.745 11.9012 8.944 12.1472 8.944ZM28.3012 8.944C28.5472 8.944 28.7472 8.744 28.7472 8.498V2.5C28.7472 2.38171 28.7002 2.26827 28.6165 2.18463C28.5329 2.10099 28.4195 2.054 28.3012 2.054C28.1829 2.054 28.0694 2.10099 27.9858 2.18463C27.9022 2.26827 27.8552 2.38171 27.8552 2.5V8.499C27.8552 8.745 28.0542 8.944 28.3012 8.944Z" fill="url(#paint1_linear_1_1092)"/>
<path d="M9.84203 19.961C11.1995 19.961 12.3 18.8605 12.3 17.503C12.3 16.1455 11.1995 15.045 9.84203 15.045C8.48452 15.045 7.38403 16.1455 7.38403 17.503C7.38403 18.8605 8.48452 19.961 9.84203 19.961Z" fill="url(#paint2_linear_1_1092)"/>
<path d="M16.906 19.961C18.2635 19.961 19.364 18.8605 19.364 17.503C19.364 16.1455 18.2635 15.045 16.906 15.045C15.5485 15.045 14.448 16.1455 14.448 17.503C14.448 18.8605 15.5485 19.961 16.906 19.961Z" fill="url(#paint3_linear_1_1092)"/>
<path d="M23.969 19.961C25.3265 19.961 26.427 18.8605 26.427 17.503C26.427 16.1455 25.3265 15.045 23.969 15.045C22.6115 15.045 21.511 16.1455 21.511 17.503C21.511 18.8605 22.6115 19.961 23.969 19.961Z" fill="url(#paint4_linear_1_1092)"/>
<path d="M9.84203 26.806C11.1995 26.806 12.3 25.7055 12.3 24.348C12.3 22.9905 11.1995 21.89 9.84203 21.89C8.48452 21.89 7.38403 22.9905 7.38403 24.348C7.38403 25.7055 8.48452 26.806 9.84203 26.806Z" fill="url(#paint5_linear_1_1092)"/>
<path d="M16.906 26.806C18.2635 26.806 19.364 25.7055 19.364 24.348C19.364 22.9905 18.2635 21.89 16.906 21.89C15.5485 21.89 14.448 22.9905 14.448 24.348C14.448 25.7055 15.5485 26.806 16.906 26.806Z" fill="url(#paint6_linear_1_1092)"/>
<path d="M23.969 26.806C25.3265 26.806 26.427 25.7055 26.427 24.348C26.427 22.9905 25.3265 21.89 23.969 21.89C22.6115 21.89 21.511 22.9905 21.511 24.348C21.511 25.7055 22.6115 26.806 23.969 26.806Z" fill="url(#paint7_linear_1_1092)"/>
<path d="M9.84203 33.651C11.1995 33.651 12.3 32.5505 12.3 31.193C12.3 29.8355 11.1995 28.735 9.84203 28.735C8.48452 28.735 7.38403 29.8355 7.38403 31.193C7.38403 32.5505 8.48452 33.651 9.84203 33.651Z" fill="url(#paint8_linear_1_1092)"/>
<path d="M16.906 33.651C18.2635 33.651 19.364 32.5505 19.364 31.193C19.364 29.8355 18.2635 28.735 16.906 28.735C15.5485 28.735 14.448 29.8355 14.448 31.193C14.448 32.5505 15.5485 33.651 16.906 33.651Z" fill="url(#paint9_linear_1_1092)"/>
<path d="M23.969 33.651C25.3265 33.651 26.427 32.5505 26.427 31.193C26.427 29.8355 25.3265 28.735 23.969 28.735C22.6115 28.735 21.511 29.8355 21.511 31.193C21.511 32.5505 22.6115 33.651 23.969 33.651Z" fill="url(#paint10_linear_1_1092)"/>
<path d="M30.8672 19.961C32.2247 19.961 33.3252 18.8605 33.3252 17.503C33.3252 16.1455 32.2247 15.045 30.8672 15.045C29.5097 15.045 28.4092 16.1455 28.4092 17.503C28.4092 18.8605 29.5097 19.961 30.8672 19.961Z" fill="url(#paint11_linear_1_1092)"/>
<path d="M30.8672 26.806C32.2247 26.806 33.3252 25.7055 33.3252 24.348C33.3252 22.9905 32.2247 21.89 30.8672 21.89C29.5097 21.89 28.4092 22.9905 28.4092 24.348C28.4092 25.7055 29.5097 26.806 30.8672 26.806Z" fill="url(#paint12_linear_1_1092)"/>
<path d="M30.8672 28.735C30.5444 28.735 30.2248 28.7986 29.9265 28.9221C29.6283 29.0456 29.3574 29.2267 29.1291 29.4549C28.9009 29.6832 28.7198 29.9541 28.5963 30.2524C28.4728 30.5506 28.4092 30.8702 28.4092 31.193C28.4092 31.5158 28.4728 31.8354 28.5963 32.1336C28.7198 32.4319 28.9009 32.7028 29.1291 32.9311C29.3574 33.1593 29.6283 33.3404 29.9265 33.4639C30.2248 33.5874 30.5444 33.651 30.8672 33.651C31.5191 33.651 32.1443 33.392 32.6052 32.9311C33.0662 32.4701 33.3252 31.8449 33.3252 31.193C33.3252 30.5411 33.0662 29.9159 32.6052 29.4549C32.1443 28.994 31.5191 28.735 30.8672 28.735ZM30.8672 32.617C30.4897 32.6165 30.1278 32.4663 29.8608 32.1993C29.5939 31.9324 29.4437 31.5705 29.4432 31.193C29.4432 30.408 30.0822 29.769 30.8672 29.769C31.2356 29.7828 31.5844 29.9389 31.8401 30.2044C32.0959 30.47 32.2388 30.8243 32.2388 31.193C32.2388 31.5617 32.0959 31.916 31.8401 32.1816C31.5844 32.4471 31.2356 32.6032 30.8672 32.617Z" fill="url(#paint13_linear_1_1092)"/>
<defs>
<linearGradient id="paint0_linear_1_1092" x1="20.0316" y1="4.962" x2="20.0316" y2="36.48" gradientUnits="userSpaceOnUse">
<stop stop-color="#3195FF"/>
<stop offset="0.495" stop-color="#2C68A9"/>
<stop offset="1" stop-color="#144A85"/>
</linearGradient>
<linearGradient id="paint1_linear_1_1092" x1="20.2242" y1="2.054" x2="20.2242" y2="8.944" gradientUnits="userSpaceOnUse">
<stop stop-color="#3195FF"/>
<stop offset="0.495" stop-color="#2C68A9"/>
<stop offset="1" stop-color="#144A85"/>
</linearGradient>
<linearGradient id="paint2_linear_1_1092" x1="9.84203" y1="15.045" x2="9.84203" y2="19.961" gradientUnits="userSpaceOnUse">
<stop stop-color="#3195FF"/>
<stop offset="0.495" stop-color="#2C68A9"/>
<stop offset="1" stop-color="#144A85"/>
</linearGradient>
<linearGradient id="paint3_linear_1_1092" x1="16.906" y1="15.045" x2="16.906" y2="19.961" gradientUnits="userSpaceOnUse">
<stop stop-color="#3195FF"/>
<stop offset="0.495" stop-color="#2C68A9"/>
<stop offset="1" stop-color="#144A85"/>
</linearGradient>
<linearGradient id="paint4_linear_1_1092" x1="23.969" y1="15.045" x2="23.969" y2="19.961" gradientUnits="userSpaceOnUse">
<stop stop-color="#3195FF"/>
<stop offset="0.495" stop-color="#2C68A9"/>
<stop offset="1" stop-color="#144A85"/>
</linearGradient>
<linearGradient id="paint5_linear_1_1092" x1="9.84203" y1="21.89" x2="9.84203" y2="26.806" gradientUnits="userSpaceOnUse">
<stop stop-color="#3195FF"/>
<stop offset="0.495" stop-color="#2C68A9"/>
<stop offset="1" stop-color="#144A85"/>
</linearGradient>
<linearGradient id="paint6_linear_1_1092" x1="16.906" y1="21.89" x2="16.906" y2="26.806" gradientUnits="userSpaceOnUse">
<stop stop-color="#3195FF"/>
<stop offset="0.495" stop-color="#2C68A9"/>
<stop offset="1" stop-color="#144A85"/>
</linearGradient>
<linearGradient id="paint7_linear_1_1092" x1="23.969" y1="21.89" x2="23.969" y2="26.806" gradientUnits="userSpaceOnUse">
<stop stop-color="#3195FF"/>
<stop offset="0.495" stop-color="#2C68A9"/>
<stop offset="1" stop-color="#144A85"/>
</linearGradient>
<linearGradient id="paint8_linear_1_1092" x1="9.84203" y1="28.735" x2="9.84203" y2="33.651" gradientUnits="userSpaceOnUse">
<stop stop-color="#3195FF"/>
<stop offset="0.495" stop-color="#2C68A9"/>
<stop offset="1" stop-color="#144A85"/>
</linearGradient>
<linearGradient id="paint9_linear_1_1092" x1="16.906" y1="28.735" x2="16.906" y2="33.651" gradientUnits="userSpaceOnUse">
<stop stop-color="#3195FF"/>
<stop offset="0.495" stop-color="#2C68A9"/>
<stop offset="1" stop-color="#144A85"/>
</linearGradient>
<linearGradient id="paint10_linear_1_1092" x1="23.969" y1="28.735" x2="23.969" y2="33.651" gradientUnits="userSpaceOnUse">
<stop stop-color="#3195FF"/>
<stop offset="0.495" stop-color="#2C68A9"/>
<stop offset="1" stop-color="#144A85"/>
</linearGradient>
<linearGradient id="paint11_linear_1_1092" x1="30.8672" y1="15.045" x2="30.8672" y2="19.961" gradientUnits="userSpaceOnUse">
<stop stop-color="#3195FF"/>
<stop offset="0.495" stop-color="#2C68A9"/>
<stop offset="1" stop-color="#144A85"/>
</linearGradient>
<linearGradient id="paint12_linear_1_1092" x1="30.8672" y1="21.89" x2="30.8672" y2="26.806" gradientUnits="userSpaceOnUse">
<stop stop-color="#3195FF"/>
<stop offset="0.495" stop-color="#2C68A9"/>
<stop offset="1" stop-color="#144A85"/>
</linearGradient>
<linearGradient id="paint13_linear_1_1092" x1="30.8672" y1="28.735" x2="30.8672" y2="33.651" gradientUnits="userSpaceOnUse">
<stop stop-color="#3195FF"/>
<stop offset="0.495" stop-color="#2C68A9"/>
<stop offset="1" stop-color="#144A85"/>
</linearGradient>
</defs>
</svg>
